# xmcd
#
# Track frame offsets:
#  150
#  18055
#  34973
#  54934
#  71141
#  97955
#  110038
#  124723
#  138269
#  151962
#  163410
#  184031
#  198453
#  215129
#  236015
#
# Disc length: 3308 seconds
#
# Revision: 0
# Processed by: cddbd v1.5.1PL2 Copyright (c) Steve Scherf et al.
# Submitted via: Collectorz.com_Music_Collector 6.9
#
DISCID=d60cea0f
DTITLE=Wolfgang Bernreuther and Rudi Bayer - Brothers in Blues
DYEAR=2006
DGENRE=Acoustic Blues - Blues Live
TTITLE0=Desert Sun
TTITLE1=Listen To Your Heart
TTITLE2=The Same Thing
TTITLE3=Peter's Tune
TTITLE4=The Thrill Is Gone
TTITLE5=I Wonder Who
TTITLE6=Livorno Blues
TTITLE7=Baby Please Don't Go
TTITLE8=New Morning
TTITLE9=Won't You Never Tell Me
TTITLE10=They Are Coming ...
TTITLE11=I Wonder Why
TTITLE12=Me And The Devil Blues
TTITLE13=House Of The Rising Sun
TTITLE14=She Won't Speak To Me
EXTD=
EXTT0=
EXTT1=
EXTT2=
EXTT3=
EXTT4=
EXTT5=
EXTT6=
EXTT7=
EXTT8=
EXTT9=
EXTT10=
EXTT11=
EXTT12=
EXTT13=
EXTT14=
PLAYORDER=
